# xmcd CD database file
#
# Track frame offsets:
#	205
#	11495
#	23100
#	37068
#	48880
#	63872
#	75697
#	88888
#	100795
#	116341
#
# Disc length: 1697 seconds
#
# Revision: 0
# Processed by: cddbd v1.4b42PL0 Copyright (c) Steve Scherf et al.
# Submitted via: Feurio! 1.61 - http://www.feurio.com
#
DISCID=71069f0a
DTITLE=Conway Twitty - Classic Country - Vol.1
DYEAR=1900
DGENRE=
TTITLE0=Hello Darlin'
TTITLE1=To See An Angel Cry
TTITLE2=Fifteen Years Ago
TTITLE3=I Can't See Me Without You
TTITLE4=Last Date (Lost Her Love On Our Last Date)
TTITLE5=Linda On My Mind
TTITLE6=Danny Boy
TTITLE7=She Needs Someone To Hold Her (When She Cries)
TTITLE8=Touch The Hand
TTITLE9=It's Only Make Believe
EXTD=Kingfischer -1996
EXTT0=
EXTT1=
EXTT2=
EXTT3=
EXTT4=
EXTT5=
EXTT6=
EXTT7=
EXTT8=
EXTT9=
PLAYORDER=
